HIERARCHY
ROOT Hips
{
  OFFSET 0 0 0
  CHANNELS 6 Xposition Yposition Zposition Zrotation Yrotation Xrotation
  JOINT LeftThigh
  {
    OFFSET 8.409438 0 -5.917753
    CHANNELS 3 Zrotation Yrotation Xrotation
    JOINT LeftLeg
    {
      OFFSET 0 0 -42.358652
      CHANNELS 3 Zrotation Yrotation Xrotation
      JOINT LeftFoot
      {
        OFFSET 0 0 -39.357303
        CHANNELS 3 Zrotation Yrotation Xrotation
      }
    }
  }
  JOINT RightThigh
  {
    OFFSET -8.409438 0 -5.917753
    CHANNELS 3 Zrotation Yrotation Xrotation
    JOINT RightLeg
    {
      OFFSET 0 0 -42.358652
      CHANNELS 3 Zrotation Yrotation Xrotation
      JOINT RightFoot
      {
        OFFSET 0 0 -39.357303
        CHANNELS 3 Zrotation Yrotation Xrotation
      }
    }
  }
  JOINT SpineLow
  {
    OFFSET 0 0 4.719101
    CHANNELS 3 Zrotation Yrotation Xrotation
    JOINT SpineMid
    {
      OFFSET 0 0 12.899191
      CHANNELS 3 Zrotation Yrotation Xrotation
      JOINT Chest
      {
        OFFSET 0 0 12.899191
        CHANNELS 3 Zrotation Yrotation Xrotation
        JOINT LeftShoulder
        {
          OFFSET 7.550562 1.41573 9.438202
          CHANNELS 3 Zrotation Yrotation Xrotation
          JOINT LeftArm
          {
            OFFSET 9.155056 0 4.247191
            CHANNELS 3 Zrotation Yrotation Xrotation
            JOINT LeftForearm
            {
              OFFSET 0 0 25.771955
              CHANNELS 3 Zrotation Yrotation Xrotation
              JOINT LeftHand
              {
                OFFSET 0 0 25.197169
                CHANNELS 3 Zrotation Yrotation Xrotation
              }
            }
          }
        }
        JOINT RightShoulder
        {
          OFFSET -7.550562 1.41573 9.438202
          CHANNELS 3 Zrotation Yrotation Xrotation
          JOINT RightArm
          {
            OFFSET -9.155056 0 4.247191
            CHANNELS 3 Zrotation Yrotation Xrotation
            JOINT RightForearm
            {
              OFFSET 0 0 -25.771955
              CHANNELS 3 Zrotation Yrotation Xrotation
              JOINT RightHand
              {
                OFFSET 0 0 -25.197169
                CHANNELS 3 Zrotation Yrotation Xrotation
              }
            }
          }
        }
        JOINT Neck
        {
          OFFSET 0 0 15.101124
          CHANNELS 3 Zrotation Yrotation Xrotation
          JOINT Head
          {
            OFFSET 0 0 11.325843
            CHANNELS 3 Zrotation Yrotation Xrotation
            End Site
            {
              OFFSET 0 0 14.157303
            }
          }
        }
      }
    }
  }
}
MOTION
Frames: 10
Frame Time: 0.0
0.0  101.685394  0.0  -5.255494  11.19567  -127.254401  11.325992  -20.491434  3.848967  -17.036384  21.492897  41.510502  -1.509347  4.633075  -0.693421  13.260966  1.490293  -76.848056  -19.856837  23.210542  12.227305  -14.181013  -13.323814  18.402967  -2.400455  -0.56406  4.530251  -6.640952  -1.085568  12.425997  -6.640952  -1.085568  12.425997  9.491238  26.680576  25.873913  105.648121  42.684432  177.637599  -29.636066  -3.433689  107.955095  88.645324  15.191522  -18.312954  13.487764  -4.442595  25.924269  25.921768  70.578186  -41.184909  -24.586428  -14.533931  -88.096939  62.770674  10.756595  21.840645  -11.18978  5.335382  7.088992  -8.449621  3.873986  5.412981  
0.0  101.685394  0.0  -4.74211  10.949554  -127.920301  11.145947  -19.651226  3.847696  -17.327202  22.474122  42.827737  0.267459  4.288204  -0.53546  8.857001  -6.337025  -79.03105  -4.193821  20.199204  23.619226  -16.253461  -13.454308  18.030485  -2.381326  -0.481393  4.887754  -6.575951  -0.82862  13.393356  -6.575951  -0.82862  13.393355  7.893614  26.685482  23.290373  106.886392  42.369122  177.934459  -29.60243  -3.995333  108.745479  88.775996  15.40572  -18.757472  13.349676  -5.068506  24.58211  25.847611  71.122149  -41.712858  -24.744327  -15.361479  -87.927731  62.88613  11.126925  21.520832  -11.473751  4.991697  5.419838  -8.645007  3.643942  4.157971  
0.0  101.685394  0.0  -4.095486  10.567088  -127.867283  11.484239  -18.33285  3.133284  -17.748573  22.802442  44.009894  2.250859  4.226839  -0.288247  6.607776  -15.504984  -80.559872  10.909404  17.558031  31.724822  -18.785697  -13.052757  18.973468  -2.510605  -0.343058  4.984556  -6.899617  -0.416475  13.643677  -6.899617  -0.416475  13.643677  8.010343  26.797969  22.45772  108.138706  42.702051  178.274208  -29.629274  -3.475876  109.638653  89.415962  15.138564  -19.171124  14.095601  -5.761891  24.385265  26.042551  71.626843  -42.053699  -24.740361  -16.156549  -87.832387  62.936977  11.30442  21.161835  -10.965027  4.813258  4.519373  -8.255109  3.53048  3.475406  
0.0  101.685394  0.0  -3.584928  9.948751  -127.452785  12.596951  -17.383311  2.11313  -18.030825  22.278516  45.211261  3.022588  4.369816  -0.235172  5.54452  -22.26136  -80.138826  19.061465  15.726298  37.013682  -17.685154  -12.242106  18.738902  -2.87739  -0.268289  4.738287  -7.882835  -0.16727  12.962477  -7.882835  -0.16727  12.962478  10.663904  27.720967  23.980584  108.836711  43.274257  178.597452  -29.991269  -2.486313  110.182948  90.234825  14.546218  -19.593483  15.88818  -5.740863  26.284867  26.434272  71.777698  -42.354314  -24.464999  -16.804964  -87.875346  62.920839  11.421416  20.943081  -9.593081  5.350353  4.741913  -7.231691  3.939823  3.639111  
0.0  101.685394  0.0  -3.326725  9.09906  -127.267762  14.378616  -17.495653  1.629789  -17.374851  20.512846  46.603987  0.879213  4.487367  -0.754205  5.215116  -24.692856  -79.037198  21.099992  15.996629  41.489548  -14.714796  -12.393462  18.397662  -3.41595  -0.215825  4.423615  -9.34066  0.03613  12.094218  -9.34066  0.036131  12.094218  15.097906  28.874343  26.568966  109.802451  44.153075  178.807049  -29.930441  -1.246052  110.823824  90.833762  13.722628  -20.20321  18.783307  -5.234083  28.866461  27.116569  71.4283  -42.315228  -24.037197  -17.232871  -88.024697  62.77079  11.661132  20.813489  -7.359931  6.056781  5.584291  -5.57086  4.476623  4.258217  
0.0  101.685394  0.0  -3.493434  8.555424  -127.189967  15.543372  -18.255527  1.431466  -16.46756  19.09638  47.299874  -1.493341  4.4907  -1.072859  5.469645  -26.261257  -79.146764  23.19771  16.62615  47.73636  -12.75457  -12.76929  17.650005  -3.889766  -0.164606  4.17722  -10.624239  0.222143  11.410521  -10.624239  0.222143  11.410521  18.875154  29.585598  28.855533  110.426565  45.158408  178.869716  -29.865866  -0.273961  111.166929  91.223557  13.022627  -20.690578  21.054267  -5.000126  30.729493  28.795412  70.719222  -41.045581  -23.432381  -17.498225  -88.280999  62.615308  12.045994  20.813474  -5.571967  6.299109  6.46823  -4.242219  4.666512  4.904382  
0.0  101.685394  0.0  -3.994857  8.385992  -127.182296  15.343956  -18.956296  1.346456  -15.101769  18.337105  47.716927  -3.219631  4.352332  -1.200051  6.672843  -27.773549  -80.607846  24.996345  18.161155  55.12638  -11.120104  -12.668335  16.840718  -3.977386  -0.121328  4.113813  -10.856307  0.344371  11.229734  -10.856307  0.344371  11.229735  19.239036  29.566384  29.38315  110.741061  45.903985  178.698008  -29.943136  0.59751  111.2288  91.81532  12.670055  -20.629044  20.664783  -5.311503  30.904944  31.739414  69.668872  -38.28737  -22.656825  -17.551426  -88.689783  62.433205  12.364698  20.927398  -5.488243  5.716824  6.997059  -4.17905  4.225907  5.295416  
0.0  101.685394  0.0  -4.455547  8.175847  -127.578875  14.557068  -19.649147  1.666008  -14.021692  18.302187  48.186032  -3.513767  4.356014  -1.379602  8.271676  -28.307634  -81.80758  25.253383  20.67617  62.054998  -9.07916  -12.106668  16.321687  -3.714231  -0.058035  4.216471  -10.127263  0.487441  11.503116  -10.127263  0.487441  11.503117  17.101842  28.858061  28.844378  111.124496  46.377275  178.752144  -30.040241  1.17714  111.147535  92.514535  12.675078  -20.058094  18.170346  -5.997348  30.149759  35.235063  68.413706  -34.858568  -21.604952  -17.602964  -89.326624  62.260241  12.668931  21.149534  -6.653925  4.645168  7.345932  -5.044506  3.405005  5.557871  
0.0  101.685394  0.0  -4.764134  7.746639  -128.053291  14.124202  -20.498375  2.09922  -13.679627  18.909159  48.465622  -3.3609  4.353329  -1.777596  10.307287  -26.565338  -82.900754  23.318777  23.297868  68.378072  -7.464249  -11.177798  16.38488  -3.481794  -0.055466  4.441883  -9.490555  0.486366  12.120656  -9.490555  0.486366  12.120656  15.069485  28.405908  27.805206  111.963072  46.834707  179.554431  -29.962874  1.203323  111.00678  92.905038  12.886041  -19.367659  15.944373  -5.98596  28.759893  38.955322  67.088776  -31.242177  -20.554819  -17.550383  -89.964836  61.99447  12.962301  21.325484  -7.695024  3.788969  7.209421  -5.814868  2.751952  5.45388  
0.0  101.685394  0.0  -5.045066  7.296296  -127.915205  14.289189  -21.332184  1.953444  -14.228046  19.912825  48.217633  -2.726409  4.548801  -2.074898  11.970605  -23.364581  -84.2661  19.985082  24.848793  74.252614  -6.505235  -9.590968  16.571631  -3.4821  -0.118853  4.661493  -9.50027  0.345701  12.728526  -9.50027  0.345701  12.728526  14.155114  28.537114  26.120746  113.2359  47.102811  -179.187275  -29.800182  0.839208  111.021387  93.084033  13.282283  -18.675603  15.142047  -5.343166  26.894428  42.788531  65.867102  -27.424922  -19.392419  -17.528966  -90.67312  61.611283  13.267067  21.475139  -7.995177  3.294985  6.577765  -6.031048  2.386016  4.976116  
